<svg xmlns:dc="http://purl.org/dc/elements/1.1/" xmlns:cc="http://creativecommons.org/ns#" xmlns:rdf="http://www.w3.org/1999/02/22-rdf-syntax-ns#" xmlns:svg="http://www.w3.org/2000/svg" xmlns="http://www.w3.org/2000/svg" xmlns:sodipodi="http://sodipodi.sourceforge.net/DTD/sodipodi-0.dtd" xmlns:inkscape="http://www.inkscape.org/namespaces/inkscape" viewBox="0 0 8.4666665 10.583333625" version="1.1" x="0px" y="0px"><g transform="translate(0,-288.53332)"><g transform="matrix(0.26458333,0,0,0.26458333,-6.1512088e-4,18.429323)" style="" display="inline"><g transform="translate(-1.307096,0.47514695)"><path style="" d="m 6.9997044,1032.5269 1.058007,6.0021 9.8747316,-9.8858 -3.52669,-3.5307 z" fill="none" stroke="#000000" stroke-width="1px" stroke-linecap="butt" stroke-linejoin="round" stroke-opacity="1"/><path style="" d="m 11.231429,1026.8777 -0.352196,-0.353 c -0.194427,-0.1948 -0.510341,-0.1942 -0.70579,0 l -1.4089547,1.4096 c -0.1954633,0.1955 -0.1959711,0.5122 -0.00136,0.7073 l 0.3522881,0.3532" display="inline" fill="none" stroke="#000000" stroke-width="1px" stroke-linecap="butt" stroke-linejoin="round" stroke-opacity="1"/><path d="m 15.287417,1031.2916 6.219086,6.5335" style="" display="inline" fill="none" stroke="#000000" stroke-width="1px" stroke-linecap="round" stroke-linejoin="round" stroke-opacity="1"/><path d="m 25.807096,1042.3871 4.5,4.6834 c 0,0 -2.247485,1.6739 -3.439957,1.2327 -1.485298,-0.5494 -1.54871,-2.4833 -2.593614,-3.6657 -0.223801,-0.2532 -0.461775,-0.5199 -0.711275,-0.7973" style="" display="inline" fill="none" stroke="#000000" stroke-width="1px" stroke-linecap="round" stroke-linejoin="round" stroke-opacity="1"/><path d="m 19.28598,1039.2057 -5.802203,-6.1077" style="" display="inline" fill="none" stroke="#000000" stroke-width="1px" stroke-linecap="round" stroke-linejoin="round" stroke-opacity="1"/></g><path d="m 8.1056904,1041.7058 -4.9947744,3.8461 c -0.8554289,0.6587 -0.7663234,1.9883 -2.48e-5,2.7469 0.7663701,0.7584 2.0088118,0.7584 2.7750927,-10e-5 l 3.8846904,-4.9447 z" style="opacity:1;fill:none;fill-opacity:1;stroke:#000000;stroke-width:1;stroke-linecap:butt;stroke-linejoin:round;stroke-miterlimit:4;stroke-dasharray:none;stroke-opacity:1"/><path d="m 10.25,1041.3622 c 0.433798,0.4288 0.910363,0.8174 1.424617,1.1583 1.02847,0.6821 2.207656,1.1737 3.496858,1.4154 5.15681,0.9671 10.121197,-2.4294 11.088266,-7.5862 0.96707,-5.1568 -2.429385,-10.1212 -7.586195,-11.0882 -0.57266,-0.1074 -1.154617,-0.1576 -1.737176,-0.1569 0.224542,0.022 0.448161,0.053 0.670286,0.092 4.436819,0.8323 7.359056,5.1035 6.52719,9.5404 -0.831331,4.4378 -5.103116,7.3612 -9.540741,6.5291 -1.10942,-0.208 -2.124077,-0.6313 -3.009072,-1.2181 z" style="display:inline;opacity:1;fill:none;fill-opacity:1;stroke:#000000;stroke-width:0.99999994;stroke-linecap:round;stroke-linejoin:round;stroke-miterlimit:4;stroke-dasharray:none;stroke-dashoffset:0;stroke-opacity:1"/><path d="m 11.5,1040.1122 -2.5,2.5" style="" fill="none" stroke="#000000" stroke-width="1px" stroke-linecap="butt" stroke-linejoin="miter" stroke-opacity="1"/></g></g><text x="0" y="23.4666669" fill="#000000" font-size="5px" font-weight="bold" font-family="'Helvetica Neue', Helvetica, Arial-Unicode, Arial, Sans-serif">Created by anbileru adaleru</text><text x="0" y="28.4666669" fill="#000000" font-size="5px" font-weight="bold" font-family="'Helvetica Neue', Helvetica, Arial-Unicode, Arial, Sans-serif">from the Noun Project</text></svg>