<svg xmlns="http://www.w3.org/2000/svg" xmlns:xlink="http://www.w3.org/1999/xlink" version="1.1" x="0px" y="0px" viewBox="0 0 90 112.5" enable-background="new 0 0 90 90" xml:space="preserve"><path fill="#000000" d="M45,17.9l-7.4,20.9H16.3l15.7,12l-4.8,21.5L45,60.1l17.8,12.2l-6.1-20.7l17-12.8l-21.8-0.2L45,17.9z   M51.4,52.9c0.9,0.9,1.8,1.8,2.7,2.6c0.6,0.6,0.6,1.3-0.1,1.8c-0.5,0.4-0.9,0.3-1.4-0.1c-0.8-0.8-1.6-1.6-2.4-2.4  c-0.3-0.3-0.6-0.4-1-0.2c-2.8,1.4-6.6,0.8-8.7-1.5c-0.2-0.2-0.4-0.5-0.7-0.8c-0.1,0.2-0.3,0.3-0.4,0.5c0.2,0.4,0.9,0.6,0.4,1.2  c-0.5,0.5-0.8-0.2-1.1-0.4c-0.7,0.8-1.3,1.6-2,2.4c-0.2,0.2-0.5,0.4-0.7,0.5c-0.5,0.1-1,0.1-1.3-0.5c-0.3-0.5-0.2-1.1,0.2-1.5  c0.7-0.6,1.4-1.1,2.1-1.7c0.2-0.1,0.3-0.2,0.5-0.4c-0.1-0.4-0.9-0.7-0.4-1.2s0.8,0.3,1.2,0.5c0.3-0.3,0.6-0.5,0.9-0.8  c0.6-0.6,1.2-0.6,1.7,0.1c1.5,1.8,4.1,2.4,6.2,1.4c0.1-0.1,0.2-0.1,0.3-0.2c-2.2-2.2-4.3-4.3-6.6-6.6c-0.6,0.6-1.1,1.3-1.7,1.9  c-0.9-0.9-1.8-1.8-2.7-2.7c0.2-0.2,0.6-0.5,0.9-0.7c1-1,2-1.9,2.9-2.9c0.3-0.3,0.5-0.4,0.9-0.3c1.2,0.2,2.5,0.4,3.8,0.7  c-0.9,0.8-1.6,1.6-2.3,2.3c2.3,2.3,4.6,4.6,6.8,6.8c0.6-0.6,0.8-1.5,1-2.3c0.7-3-0.4-5.4-2.5-7.4c-0.9-0.9-1.9-1.7-2.8-2.5  c3.2,0.6,5.7,2.2,7.3,5.1C53.8,46,53.5,50.6,51.4,52.9z"/><path fill="#000000" d="M85.8,35c-0.4-1.2-1.6-2.1-2.9-2.1l0,0L56.3,33L47.9,7.5c-0.4-1.2-1.6-2.1-2.9-2.1s-2.5,0.8-2.9,2.1  l-8.4,25.6L7.1,33l0,0c-1.3,0-2.4,0.8-2.9,2.1c-0.4,1.2,0,2.6,1.1,3.4l20.2,14.9l-6.8,26.4c-0.4,1.2,0.1,2.6,1.1,3.4  c1.1,0.8,2.5,0.7,3.5-0.1L45,67.7L66.6,83c0.5,0.4,1.2,0.6,1.8,0.6c0.6,0,1.2-0.2,1.7-0.5c1.1-0.8,1.5-2.1,1.1-3.4l-6.8-26.4  l20.2-14.9C85.8,37.6,86.2,36.3,85.8,35z M61,52.1l7.4,28.4L45,64L21.6,80.5L29,52.1L7.1,36l28.8,0.1L45,8.5l9.1,27.7L82.9,36  L61,52.1z"/><text x="0" y="105" fill="#000000" font-size="5px" font-weight="bold" font-family="'Helvetica Neue', Helvetica, Arial-Unicode, Arial, Sans-serif">Created by Alexandr Cherkinsky</text><text x="0" y="110" fill="#000000" font-size="5px" font-weight="bold" font-family="'Helvetica Neue', Helvetica, Arial-Unicode, Arial, Sans-serif">from the Noun Project</text></svg>