<?xml version="1.0" standalone="no"?>
<!DOCTYPE svg PUBLIC "-//W3C//DTD SVG 20010904//EN"
 "http://www.w3.org/TR/2001/REC-SVG-20010904/DTD/svg10.dtd">
<svg version="1.0" xmlns="http://www.w3.org/2000/svg"
 width="1280.000000pt" height="836.000000pt" viewBox="0 0 1280.000000 836.000000"
 preserveAspectRatio="xMidYMid meet">
<g transform="translate(0.000000,836.000000) scale(0.100000,-0.100000)"
fill="#000000" stroke="none">
<path d="M8665 8274 l-95 -86 0 -102 c0 -125 -25 -741 -45 -1096 -18 -348 -35
-728 -43 -1025 l-7 -240 -52 -3 c-62 -4 -67 3 -77 103 -22 221 -177 616 -293
745 -122 136 -248 153 -968 129 -231 -7 -553 -13 -715 -13 -255 0 -316 3 -450
23 -99 14 -172 20 -205 16 -159 -20 -387 -110 -492 -194 -29 -22 -62 -60 -73
-82 -31 -60 -60 -183 -60 -254 0 -34 -5 -66 -12 -73 -19 -19 -71 -14 -132 14
-75 34 -113 34 -143 0 -12 -15 -25 -39 -28 -54 -4 -15 -14 -58 -25 -97 -10
-38 -21 -83 -25 -98 -7 -35 -42 -51 -168 -77 -152 -31 -293 -43 -417 -37 -130
7 -191 22 -288 67 -151 72 -221 92 -327 97 -124 5 -144 -3 -166 -72 -28 -88
-105 -113 -364 -122 -178 -6 -335 6 -424 33 -62 18 -106 63 -127 128 -28 87
-63 138 -173 246 -128 127 -208 221 -218 257 -10 40 14 139 53 221 33 69 39
75 120 127 116 75 188 110 307 150 179 60 321 69 391 25 30 -19 86 -81 86 -96
0 -4 18 -37 39 -73 22 -36 51 -99 65 -138 42 -119 92 -204 175 -296 37 -41
115 -78 177 -84 50 -5 55 -4 83 26 50 53 84 137 85 206 0 74 -17 108 -113 228
-78 96 -111 153 -111 190 0 44 90 146 162 183 108 56 282 79 412 54 58 -11 69
-10 91 4 40 26 33 62 -23 116 -76 73 -216 130 -320 130 -182 0 -498 -136 -645
-279 l-48 -46 -167 3 c-284 6 -534 -55 -806 -196 -234 -122 -296 -223 -356
-577 -44 -262 -12 -386 133 -521 l69 -64 -43 0 c-24 0 -336 21 -692 46 -644
46 -648 46 -690 28 -100 -45 -153 -89 -209 -175 -62 -94 -158 -273 -158 -293
0 -8 -11 -38 -25 -68 -14 -30 -39 -122 -57 -204 -29 -139 -31 -162 -31 -354
-1 -165 5 -244 26 -406 29 -222 52 -345 71 -384 7 -14 16 -38 20 -55 4 -16 25
-52 45 -80 21 -27 47 -65 57 -83 27 -46 100 -79 204 -91 47 -5 209 -12 360
-15 323 -7 620 -28 650 -46 12 -7 11 -58 -5 -303 -20 -320 -17 -513 9 -612 27
-101 90 -213 190 -339 136 -170 144 -192 106 -300 -10 -31 -184 -468 -386
-971 -202 -504 -365 -918 -362 -920 15 -15 465 -26 1508 -35 657 -5 1683 -15
2280 -21 597 -6 1206 -12 1354 -12 l269 -2 8 30 c7 24 30 887 41 1541 l3 170
43 54 c77 96 106 112 467 257 328 132 402 167 506 244 103 77 244 216 291 289
97 150 156 302 223 580 61 254 91 355 110 370 24 20 218 35 254 20 36 -14 58
-62 71 -155 6 -38 15 -365 20 -725 13 -921 19 -1202 30 -1302 16 -141 99 -344
171 -418 83 -86 157 -101 634 -130 578 -34 711 -40 995 -40 l276 0 139 54
c395 151 637 260 648 290 4 9 14 16 23 16 16 0 296 127 529 240 175 85 429
258 646 441 42 35 91 75 109 89 l33 25 8 130 c4 72 8 285 9 475 0 330 12 841
45 1915 44 1465 58 2128 59 2930 1 788 -1 805 -107 913 l-51 52 -1938 0 -1938
0 -95 -86z m1329 -225 c320 -15 419 -32 438 -77 18 -41 22 -547 9 -992 -6
-212 -18 -738 -26 -1170 -8 -432 -18 -809 -21 -838 -6 -45 -10 -53 -32 -59
-14 -3 -32 -2 -40 4 -17 10 -66 149 -114 321 -17 62 -41 128 -54 145 -13 18
-31 47 -40 66 -21 45 -109 137 -159 166 -58 33 -122 44 -369 60 -338 23 -414
41 -455 108 -32 53 -132 347 -146 432 -8 44 -21 175 -29 290 -11 148 -23 240
-41 310 -14 55 -25 110 -25 123 0 30 -24 88 -57 135 l-26 37 28 62 c53 117 73
251 41 277 -22 18 -26 60 -26 262 -1 167 1 194 19 234 33 74 94 101 265 115
114 9 548 4 860 -11z m-3068 -1459 c55 -5 206 -14 335 -20 268 -12 319 -20
373 -58 47 -32 147 -155 180 -221 62 -121 80 -261 66 -506 -18 -302 -43 -491
-91 -679 -35 -136 -62 -196 -129 -281 -62 -79 -70 -96 -80 -168 -8 -52 -15
-66 -53 -106 -24 -25 -73 -85 -110 -132 -36 -48 -87 -105 -112 -127 -91 -80
-384 -210 -936 -416 -184 -68 -409 -154 -500 -189 -91 -36 -185 -70 -207 -77
-23 -6 -109 -42 -191 -80 -278 -129 -809 -329 -1081 -408 -225 -66 -361 -87
-645 -103 -326 -17 -675 3 -776 45 -133 56 -232 383 -185 611 22 107 47 155
109 211 144 130 319 212 564 266 77 17 133 22 263 22 220 1 314 -21 555 -135
l109 -50 145 31 c195 41 265 64 331 107 30 20 149 133 264 250 357 365 467
444 677 487 268 55 485 76 711 67 121 -4 129 1 247 135 88 99 133 142 220 206
24 18 57 56 72 83 31 55 61 158 53 179 -9 23 -41 26 -210 16 -178 -9 -337 0
-435 25 -244 63 -561 301 -658 495 -46 93 -52 144 -22 181 18 23 25 24 113 21
51 -1 185 -12 298 -23 113 -12 252 -22 310 -22 154 -3 180 16 215 153 16 66
43 142 66 193 14 30 8 30 145 17z m-722 -124 c31 -13 37 -19 27 -29 -18 -18
-352 -17 -375 2 -21 18 -16 33 15 43 46 14 291 3 333 -16z m-5279 -771 c152
-12 542 -40 1030 -73 l109 -7 19 -60 c25 -81 32 -183 15 -215 -7 -14 -30 -33
-52 -44 -57 -28 -210 -23 -541 18 -154 19 -354 42 -445 51 -249 24 -225 15
-251 93 -28 84 -73 186 -99 222 -22 31 -17 42 14 35 12 -2 102 -11 201 -20z
m7923 -65 c394 -19 598 -34 661 -46 21 -4 53 -29 96 -75 84 -89 87 -117 20
-208 -24 -33 -55 -63 -67 -66 -13 -3 -49 1 -81 9 -83 22 -341 39 -477 33 -88
-4 -132 -11 -189 -31 -93 -32 -119 -32 -165 -1 -26 18 -50 25 -84 25 -54 0
-135 35 -170 72 -33 36 -42 80 -42 200 l0 108 46 0 c25 0 228 -9 452 -20z
m-8341 -152 c43 -46 92 -125 104 -172 6 -21 30 -69 55 -105 24 -36 44 -72 44
-79 0 -8 13 -53 30 -100 36 -107 48 -200 52 -406 l3 -159 -56 -29 c-66 -35
-174 -54 -244 -44 -45 7 -57 14 -120 80 -39 40 -83 97 -100 127 l-29 54 -4
220 c-5 268 5 359 53 480 47 119 46 117 91 142 55 32 84 29 121 -9z m9849
-1215 c3 -16 8 -35 11 -43 16 -49 -14 -1724 -33 -1818 -9 -45 -36 -56 -117
-48 -71 8 -116 32 -221 116 -52 41 -58 51 -80 122 -13 43 -33 90 -44 105 -27
40 -31 67 -47 355 -8 141 -19 268 -25 282 -11 30 -24 31 -117 14 -76 -14 -83
-9 -83 63 0 42 4 50 43 86 54 50 175 131 249 166 40 20 82 55 146 122 119 124
143 160 211 324 68 160 78 181 91 181 5 0 12 -12 16 -27z"/>
<path d="M393 5253 c-30 -72 -45 -210 -40 -348 8 -165 21 -225 60 -277 54 -70
79 -83 158 -83 62 0 71 3 96 28 23 23 28 35 27 75 -5 150 -45 377 -84 467 -22
52 -59 96 -119 139 -62 46 -78 45 -98 -1z"/>
<path d="M6020 7691 c-73 -14 -191 -51 -242 -77 -87 -44 -166 -153 -182 -249
-12 -75 34 -226 94 -303 49 -62 127 -135 182 -168 62 -38 130 -55 142 -35 4 6
-5 46 -20 89 -22 64 -25 88 -21 144 8 92 39 159 99 213 71 63 131 80 283 79
203 -2 310 -42 404 -154 94 -112 111 -114 111 -12 -1 156 -41 252 -148 354
-70 67 -108 88 -192 105 -76 16 -445 26 -510 14z"/>
<path d="M4825 7634 c-169 -20 -316 -96 -411 -212 -47 -58 -124 -207 -124
-241 0 -33 60 -253 80 -292 28 -53 79 -119 207 -261 126 -141 186 -194 232
-208 28 -8 33 -6 48 17 15 22 15 34 5 94 -16 93 -76 277 -120 369 -19 41 -35
89 -35 107 1 45 51 130 98 167 99 80 164 103 386 141 79 13 162 30 184 37 39
13 40 15 39 56 -2 79 -72 127 -255 176 -149 39 -268 57 -334 50z"/>
</g>
</svg>
