<svg xmlns="http://www.w3.org/2000/svg" xmlns:xlink="http://www.w3.org/1999/xlink" version="1.1" x="0px" y="0px" viewBox="0 0 100 125" enable-background="new 0 0 100 100" xml:space="preserve"><path d="M89.928,49.036c4.568-10.792,1.775-27.186-4.509-34.579c-2.822,14.11-23.517,26.339-23.517,26.339s1.411-4.233-0.47-3.292  s-4.233-0.941-2.352-5.174s7.055-0.47,7.055-0.47l1.411-1.411c1.411-1.881-3.292-3.292-1.881-4.233s5.174,1.411,5.174,1.411  s0.47,0,0.941-2.822s-5.174-1.411-4.233-5.174s0.47-2.439-4.703-2.909s-2.822,5.086-2.822,5.086h-0.47  c-3.763,0-4.703-5.557-2.822-9.32s-4.703-2.803-4.703-2.803L50.144,5h-0.288l-1.881,4.023c0,0-6.585,0.513-4.703,4.276  s0.941,8.509-2.822,8.509h-0.47c0,0,2.352-5.557-2.822-5.086s-5.644-0.191-4.703,3.571c0.941,3.763-4.703,2.021-4.233,4.843  c0.47,2.822,0.941,2.657,0.941,2.657s3.763-2.434,5.174-1.494s-3.292,2.31-1.881,4.192l1.411,1.39c0,0,5.174-3.773,7.055,0.46  s-0.47,6.109-2.352,5.169s-0.47,3.29-0.47,3.29S17.402,28.569,14.58,14.458c-6.284,7.393-9.077,23.786-4.509,34.578  c-1.29,0.383-2.862,1.322-0.665,3.519c3.292,3.292,4.233,3.292,6.114,7.996s5.174,13.17,6.114,14.581  c0.09,0.135,0.197,0.335,0.319,0.586c-1.614,1.312-2.265,3.649,0.152,5.528c0.831,0.646,1.716,0.926,2.624,0.969  c0.777,1.703,1.534,3.082,2.08,3.264c1.113,0.371,1.928-1.603,1.532-4.068c2.537-1.066,4.922-2.774,6.464-2.517  c2.822,0.47-4.703,4.703-1.411,8.937c3.223,4.144,13.205,3.783,16.27,6.856c0.1,0.24,0.212,0.347,0.336,0.305  c0.124,0.042,0.235-0.064,0.336-0.305c3.065-3.073,13.047-2.711,16.27-6.856c3.292-4.233-4.233-8.466-1.411-8.937  c1.542-0.257,3.927,1.451,6.464,2.517c-0.396,2.466,0.419,4.439,1.532,4.068c0.546-0.182,1.303-1.561,2.08-3.264  c0.907-0.042,1.793-0.323,2.624-0.969c2.416-1.879,1.766-4.217,0.152-5.529c0.121-0.251,0.229-0.451,0.319-0.586  c0.941-1.411,4.233-9.877,6.114-14.581s2.822-4.703,6.114-7.996C92.79,50.358,91.218,49.419,89.928,49.036z M31.042,65.254  c-9.407,5.174,3.292,10.348,3.292,10.348s-4.703,1.411-7.996-0.47c-0.293-0.167-0.601-0.28-0.916-0.349  c-2.647-5.011-6.922-12.85-10.079-18.611c0.061,0.047,0.116,0.1,0.177,0.146c11.288,8.466,20.695,3.292,21.636,0.47  S40.449,60.081,31.042,65.254z M54.377,23.071c-0.47,2.822-4.233,10.274-4.233,10.274s-4.05-7.325-4.521-10.147  s2.352-1.39,3.292-1.39c0.317,0,1.852,0,2.169,0C52.025,21.808,54.847,20.249,54.377,23.071z M74.577,74.782  c-0.315,0.069-0.623,0.182-0.916,0.349c-3.292,1.881-7.996,0.47-7.996,0.47s12.699-5.174,3.292-10.348s-7.055-11.288-6.114-8.466  s10.348,7.996,21.636-0.47c0.061-0.046,0.117-0.099,0.177-0.146C81.499,61.932,77.224,69.771,74.577,74.782z"/><text x="0" y="115" fill="#000000" font-size="5px" font-weight="bold" font-family="'Helvetica Neue', Helvetica, Arial-Unicode, Arial, Sans-serif">Created by Eugen Belyakoff</text><text x="0" y="120" fill="#000000" font-size="5px" font-weight="bold" font-family="'Helvetica Neue', Helvetica, Arial-Unicode, Arial, Sans-serif">from the Noun Project</text></svg>