<svg xmlns="http://www.w3.org/2000/svg" xmlns:xlink="http://www.w3.org/1999/xlink" version="1.1" x="0px" y="0px" viewBox="0 0 300 375" style="enable-background:new 0 0 300 300;" xml:space="preserve"><g><path d="M163.7,158.9c-3.4-0.3-7.3-1.7-9.9-0.5c-2.4,1.1-7.4,1-7,5.3c-2.3,1.9-4.3,3.5-6.2,5.2c2.3,4.5,0.8,7.3-4.1,8.3   c-1.2,0.2-2.3,0.7-3.9,1.2c1.2,1.5,2,2.5,2.8,3.4c-0.2,0.3-0.3,0.7-0.5,1c-1.9-0.5-3.7-1.1-5.9-1.7c-1.3,1.7-3.2,3.1-6.2,1.5   c-0.6-0.3-2.1,0.7-3,1.3c-1.2,0.8-2.1,1.8-3.2,2.7c-4.1-3.9-8.1-6.7-13.8-4.4c-0.9-1.5-1.8-3-2.7-4.5c0.7-0.5,1.5-0.9,2.9-1.8   c-2.1-1.2-3.7-2-5.2-3.1c-1.2-0.9-2.1-2-3.1-3.1c1.3-0.7,2.5-1.5,4.5-2.6c-1.4-0.9-3.2-2.9-4.3-2.6c-2.6,0.8-4.9,2.6-7.4,4.1   c2.6,3.6,4.7,6.4,6.7,9.3c0.2,0.3-0.5,1.2-0.8,1.7c-1-0.3-2.3-1.3-2.9-0.9c-3.5,2.2-4.9-0.6-6.9-2.5c-1.9-1.8-3.6-3.8-5.8-5.1   c-2.9-1.7-5.6-3.1-3.3-7.4c-1.8,0.7-3.6,1.3-5.7,2.1c0.4,0.8,0.7,1.5,1,2.3c-1.5,1-2.5,1.3-3.3-1.1c-0.7-2-2.6-2.9-4.3-1.1   c-1.4,1.5-2.9,3.3-3.3,5.3c-0.6,2.8-2.6,3.2-4.6,3.6c-2.1,0.4-4.3,0.3-6.2,0.5c-1-0.6-2.2-1.2-3.3-1.9c-2.9-1.7-5.9-3.3-8.8-5.1   c-0.4-0.2-0.5-1.9-0.3-2c1.1-0.7,2.4-1,3.7-1.5c0.2,0.2,0.4,0.5,0.5,0.7c0.4-1.2,0.8-2.3,1.2-3.5c-1.4-0.4-2.8-0.7-4.1-1.2   c-1.1-0.4-2.2-1-3.9-1.7c1.9-0.9,3.1-1.5,4.2-2c-0.4-6.4-0.1-6.5,8.4-5.8c0.2-1.5,0.2-3,0.5-4.4c0.1-0.5,1.2-1.2,1.6-1.1   c4.6,1.3,2.1-1.5,1.6-3.6c5.1,1.5,7.7-1.1,8.6-5.1c-1.3-3.8-2.6-7.5-4.1-11.8c5.9-0.5,11,1.1,16.5,3.3c-3.8,3.3-7.5-0.8-11.4,1.6   c2.6,1.5,5.5,4.5,7.6,4.1c3.2-0.7,5.9-3.9,9-6.1c1.5,2,3.6,0.9,6.1-0.5c1.3-0.7,3.1-0.5,4.7-0.6c2.6-0.2,5.1-0.3,7.8-1.1   c-0.9-0.5-1.7-0.9-2.6-1.4c0-0.1,0.1-0.2,0.1-0.3c4.6,1,9.1,2.1,13.7,3.1c0.1-0.3,0.1-0.7,0.2-1c-1.5-1.3-3.1-2.5-4.6-3.8   c0.1-0.5,0.1-0.9,0.2-1.4c1.5-0.1,3.4-0.9,4.6-0.3c3,1.4,5,6.6,4.7,10.1c1-0.9,2.7-1.6,2.9-2.7c0.2-1-0.9-2.4-1.7-3.4   c-0.5-0.7-1.4-1.3-1.9-1.7c2.4-1.3,4.6-2.5,6.7-3.6c0.8-0.4,1.7-0.9,2.5-0.9c1.9,0.1,2.6-0.3,3.8-2.1c1-1.4,4.5-1,6.9-1.5   c1.8-0.4,3.7-0.9,5.5-1.4c0.7-0.2,1.7-1,2.1-0.7c3.6,2.4,7.8,0.6,11.5,1.8c0.8,0.3,1.5,0.8,2.5,1.3c-1.5,1.1-2.7,1.9-4.2,2.9   c3.8,0.2,7.2,0.5,10.6,0.5c4.7,0.1,9.4-0.1,14.1-0.1c0.7,0,1.5,0,1.9,0.4c3.7,3.3,8.2,3.5,12.8,2.9c1.4-0.2,2.7-1.1,4-1.7   c0.9-0.3,1.8-0.9,2.7-0.8c2.6,0.2,5.4,0.2,7.7,1.2c4.8,2,9.7,2,14.7,2c0.9,0,1.9,0.5,2.8,0.8c1.8,0.4,3.7,1,5.5,1.1   c3.5,0.2,7,0.1,10.8,0.1c0,0.4,0-0.1,0.1-1.3c5,1,9.9,2.3,14.9,3c4.4,0.6,8.4,3.2,13.1,2.8c1.3-0.1,2.7,1.5,3.9,2.7   c-4.3,0.9-8.6-4.3-12.8,0.8c2.4,1,4.8,2.1,6.7,2.9c-1.6,1.1-3.3,2.3-5,3.4c-0.6,0.4-1.4,0.5-2.1,0.6c-2.1,0.4-4.5,0.2-6.2,1.3   c-2.5,1.5-0.1,2.8,1,3.6c3.6,2.5,5.5,6.7,4.4,10.8c-0.1,0.3-1.6,0.6-1.9,0.3c-1.8-1.4-3.5-3.1-5.2-4.6c-3-2.7-4.7-5.8-2.6-9.9   c0.2-0.3,0.5-0.7,0.4-0.9c-0.4-1.3-0.9-2.5-1.4-3.7c-0.9,0.6-1.7,1.3-2.9,2.2c-0.4-0.2-1.4-0.6-2.4-1c-2.3-0.8-3.8-0.3-3.8,2.4   c0,2.5-1.1,2.1-3,1.9c-3.6-0.4-7.2-0.4-10.8,0c-1.1,0.1-2.2,1.9-2.9,3.2c-0.7,1.3-1,2.9-1.8,5.3c2.3,0.3,4.6,0.6,6.8,0.8   c0.5,0.1,1.1,0,1.6,0.3c6.1,2.8,9.3,13.1,5.7,18.7c-0.4,0.7-1.7,1.5-2.3,1.3c-1.5-0.3-3-1.2-4.4-1.9c1.1-2.1,2.4-3.3,2.3-4.5   c-0.2-2.3-0.8-5-4.2-2.5c-0.3,0.2-1.2,0.2-1.5,0c-4.1-2.9-9.6-3.2-12.9-7.8c-2.6-3.7-6.1-3.9-10.7-2c0.4,0.9,1,1.7,1.1,2.6   c0.2,0.9-0.1,1.9-0.2,2.9c-0.1,0.1-0.3,0.3-0.5,0.3c-4.9,0.1-9.8,0.6-14.6,0c-4.6-0.6-9.2-2.2-13.7-3.5   C164.3,155.2,163.1,155.8,163.7,158.9z"/></g><text x="0" y="315" fill="#000000" font-size="5px" font-weight="bold" font-family="'Helvetica Neue', Helvetica, Arial-Unicode, Arial, Sans-serif">Created by Clément Lcqvll</text><text x="0" y="320" fill="#000000" font-size="5px" font-weight="bold" font-family="'Helvetica Neue', Helvetica, Arial-Unicode, Arial, Sans-serif">from the Noun Project</text></svg>