<svg xmlns="http://www.w3.org/2000/svg" xmlns:xlink="http://www.w3.org/1999/xlink" version="1.1" x="0px" y="0px" viewBox="0 0 300 375" style="enable-background:new 0 0 300 300;" xml:space="preserve"><style type="text/css">
	.st0{fill:none;stroke:#000000;stroke-width:2;stroke-miterlimit:10;}
	.st1{stroke:#000000;stroke-width:2;stroke-miterlimit:10;}
	.st2{stroke:#000000;stroke-miterlimit:10;}
</style><symbol id="a" viewBox="-140.7 -111.3 281.4 222.5"><path class="st0" d="M33.9-25.2c0.2-6.2,1.4-13.1,0.8-19.2c-0.6-5.3-3.9-11-5.8-16c-4.1-10.4-6.2-12.5-12.1-21.9   C15-74.1,8.6-73,6.7-64.8c-0.7,3.1-1,7-2.2,9.9c-0.9,2-6,6.1-4.2,8.9c0.5,0.8,7.8,2.2,9.2,2.7c3.4,1.2,6.3,2.4,9.5,4   C25.1-36.1,32-32.8,33.9-25.2z"/><path class="st0" d="M-34.2-25.2c-0.2-6.2-1.4-13.1-0.8-19.2c0.6-5.3,3.9-11,5.8-16c4.1-10.4,7.4-12.5,13.3-21.9   c1.8,8.2,7,9.3,8.8,17.5c0.7,3.1,1,7,2.2,9.9c0.9,2,6,6.1,4.2,8.9c-0.5,0.8-7.8,2.2-9.2,2.7c-3.4,1.2-6.3,2.4-9.5,4   C-25.6-36.1-32.5-32.8-34.2-25.2z"/><path class="st1" d="M4.3-70.3c1.6,9.2,1.3,13.7-4.2,21.4c-3.4-4.2-6.5-7.6-6.4-13.4c0-1.5,0.9-7.2,1.8-8   C-3.1-71.4,2.6-70.3,4.3-70.3z"/><path class="st1" d="M12.1-88.2c-1.2,2.5-2.2,5.2-3.4,7.7c-0.9,2.1-2.3,8.3-4.3,9.8c-1.1,0.8-6.6,1-8.1,0.4   C-5.6-71.1-6-73.6-7-75.7c-1.5-3.4-4.3-7.3-4.9-11c-0.4-2.3-0.4-1.5,0.7-3.8c2.9-6.1,7.1-11.9,10.6-17.7   C3.7-101.5,7.9-94.9,12.1-88.2z"/><path class="st2" d="M33.9-26.2C36.2-31,56.1-42,60.5-44.1c9.2-4.3,10.3-4.5,20.2-6.5c9.5-1.9,17.4-3,26.5-6   c6.3-2.1,9.4-4.4,15.7-6.5c4-1.3,3.8-9.3,5.3-12.8c4.4-11.4,7.9-23.2,11.8-34.9c-31.5,0-62.8,0-94.3,0c-50.4,0-100.7,0-151.1,0   c-11.6,0-23,0-34.6,0c3.9,10.1,7.7,20.2,11.6,30.2c1.4,3.6,2.5,10.7,5.1,13.4c1.8,2,5.2,7.8,7.9,8.6c9.2,2.7,14.8,7.2,24.4,8.8   c10.6,1.7,18.3,2.7,27.9,7.3c4.1,2,26.8,11.6,28.9,16.2c-0.3-6.4-1.8-14.3-0.3-20.5c1.7-6.6,5.1-14.4,8.5-20.5   c8-13.9,17.3-27.3,25.4-41.1c8.5,13.6,17.9,27,25.9,40.8c3.5,6,6.9,13.7,8.6,20.5C35.7-40.7,34.1-32.8,33.9-26.2z"/><path d="M-20.9,35.5c0-3.8-8.1-3.8-8.2,0C-29.2,39.3-20.9,39.3-20.9,35.5z"/><g><path d="M-33.8,36.5c1.1,1.4,2.6,2.4,4.3,2.9c1.7,0.6,3.5,0.7,5.3,0.5s3.5-0.9,5-1.9s2.7-2.4,3.3-4c-1.6,0.8-3,1.4-4.4,1.9    s-2.9,0.8-4.3,1c-1.5,0.2-2.9,0.3-4.4,0.2C-30.5,37.1-32.1,36.8-33.8,36.5z"/></g><path d="M-6.1,37.4c-4.4,4.6-9,9.7-15.6,10.7c-3,0.5-5.9,0.7-8.9,1.3c-4.4,0.8-10.7,2.8-11.9-3.5C-30.4,45.4-16.8,43.6-6.1,37.4z"/><path d="M7.1,26.7"/><path d="M19.8,36.4c0-3.8,8.1-3.8,8.2,0C28.1,40.1,19.8,40.2,19.8,36.4z"/><g><path d="M32.7,37.4C31,37.7,29.4,38,27.9,38c-1.5,0.1-3,0-4.4-0.2c-1.5-0.2-2.9-0.5-4.3-1c-1.4-0.5-2.9-1.1-4.4-1.9    c0.6,1.6,1.9,3,3.3,4c1.5,1,3.2,1.7,5,1.9c1.8,0.2,3.6,0.1,5.3-0.5S31.7,38.8,32.7,37.4z"/></g><path d="M5,38.3C9.4,42.9,14,48,20.6,49c3,0.5,5.9,0.7,8.9,1.3c4.4,0.8,10.7,2.8,11.9-3.5C29.3,46.3,15.7,44.5,5,38.3z"/><path class="st2" d="M8.6,110.2c5.7-1.4,12.6-2,17.7-5c3.2-1.9,7.1-3.8,10-6.2c2.5-2.1,4.5-5.1,6.6-7.6C51.4,81.5,58,71.2,58,57.9   c0-3.8,0-7.5,0-11.3s-3-5.7-5.5-8.5c-0.5,11.1,4.7,25.6-1.3,35.7c-5.9,9.8-13,20.9-22.9,27C22.1,104.5,15.2,107.2,8.6,110.2z"/><path class="st1" d="M-8.1,110.2c-5.7-1.4-12.6-2-17.7-5c-3.2-1.9-7.1-3.8-10-6.2c-2.5-2.1-4.5-5.1-6.6-7.6   c-8.5-9.9-15.1-20.3-15.1-33.6c0-3.8,0-7.5,0-11.3s3-5.7,5.5-8.5c0.5,11.1-4.7,25.6,1.3,35.7c5.9,9.8,13,20.9,22.9,27   C-21.6,104.5-14.6,107.2-8.1,110.2z"/><g><g><path d="M0,2.4c-0.6,0.9-4.7,0.3-6.1,0.3c-4.4-1.5-9.1-2.8-13.2-4.7c-5-2.3-9.7-5.4-14.5-8.1c1.7-0.9,3.4-2,5.3-2.4     c2.7-0.5,6-0.1,8.7,0c4.6,0.1,8.6,3,13.1,3.3c1.7,0.1,3.2-1.4,4.8-1.4C0.9-10.6,0-8,0-5.9C0-4.3,1,1,0,2.4z"/></g></g><g><g><path d="M19.3-2c-4.2,2-8.9,3.2-13.2,4.7c-2,0-4.1,0-6.1,0c0-2.1,0-4.3,0-6.4c0-1.1-0.7-5.6,0-6.4c1.3-1.6,4.1,0.6,5.4,0.8     c1.5,0.2,2.9-0.4,4.5-0.9c4.2-1.2,7.5-2.3,11.8-2.3c2.2,0,5.1-0.5,7.2,0c1.6,0.4,3.3,1.6,4.8,2.4C29-7.4,24.3-4.3,19.3-2z"/></g></g><path d="M21.3-25.3c-2.5-0.2-6.3-1.4-8.7-0.8c-2.3,0.5-5.1,3.1-7.2,4.4c-1.1,0.7-4.2,3.4-5.5,3.4c-2,0-6.1-3.8-7.8-4.8   c-2.3-1.4-3.7-2.7-6.3-2.8c-2.8-0.1-5.9,1.5-8-0.3c-0.5-0.4-2.9-3.3-2.9-4c0-0.6,1.1-1.6,1.5-2.2c1.7-2.1,3.3-5.1,5.3-6.8   C-13.5-43.3-6-45-0.1-46.9l0,0c5.9,2,13.1,3.6,18,7.6c2.2,1.8,4.4,5.1,5.9,7.4c1.1,1.7,1,0.8,0.5,2.4   C23.8-28.1,22.2-26.6,21.3-25.3z"/><path class="st0" d="M56,37.1c-2.9,0.7-3.3,0.2-3.6,3c-0.3,2.4-0.1,4.4,0.3,6.7c0.7,4.2,0.6,8,0.5,12.3c0,3.4,0.8,8.5-0.4,11.6   c-1.4,3.8-5.5,7.7-7.8,10.9c-4.9,6.9-9.1,14.1-16.4,18.8c-3.9,2.5-8.7,4.2-12.9,6.2c-3.2,1.5-6,3.5-9.5,3.5c-4.5,0-9.2,0.3-13.6,0   c-3.7-0.3-7.1-2.7-10.4-4.3c-7-3.4-14.2-6.2-19.2-12.4c-3.2-4-6-8.4-9-12.6c-2.1-3-6.3-6.9-7.4-10.4s-0.1-9.2-0.1-13   c-0.1-4.2,0.3-7.6,0.8-11.7c0.2-1.9,0.9-5.4,0-7c-0.6-1.2-1.2-0.5-2.6-1.3c-1.3-0.7-0.7-0.4-1.5-2c-2.2-4.3-0.5-8.5,1.6-12.6   c1.9-3.8,6-7.5,5.4-12.1c-0.3-2.3-2.3-4.7,0.2-6.8c1.8-1.5,4.8-1.4,6.3,0c2.2-9.3,5.7-18.3,9.1-27.2c1.5-3.9,6-5,9-7.9   c2.1-2,3.6-4.7,5.4-6.8c1.5-1.8,2.7-2.4,4.8-3.5c4.2-2.2,9.3-4.8,14.1-5.2C2.6-47,7.7-44.9,11-43.5c5.7,2.5,8.1,4.9,11.8,9.6   c1.1,1.5,2,2.6,3.4,3.7c2,1.6,5.4,2.9,7,4.9c1.4,1.8,1.8,5.3,2.5,7.5c0.6,2,1.4,3.9,2.2,5.8C40.2-6.6,41.7-1.8,43,3.9   c2.7-2.2,7.6-0.5,7.8,3.3c0.1,1.5-1.4,3-1.3,4.5c0.1,1.4,0.9,3.4,1.6,4.7c1.7,3.5,4,6.2,5.3,9.9c0.5,1.6,1.6,3.6,1.6,5.3   C57.8,33.3,56.6,35.5,56,37.1z"/><g><path d="M-1.8,36.7C-2,32.8-2,29-2.9,25.1c-0.1-0.5-0.2-1-0.4-1.5s-0.4-1-0.6-1.5c-0.5-1-1-1.8-1.5-2.6c-1-1.6-2.1-3.1-2.4-4.6    c-0.1-0.3-0.1-0.8-0.2-1.2l-0.1-1.4c-0.1-0.9-0.1-1.9-0.1-2.7c0-0.2,0-0.4,0-0.4s0,0,0,0.1l-0.1,0.1c-0.1,0.1-0.1,0.2-0.2,0.2    c-0.1,0.1-0.1,0-0.1,0c0.2-0.1,0.7-0.1,1.1-0.1c0.5,0,1,0,1.5-0.1c0.3,0,0.6-0.1,0.9-0.2C-5,9.2-4.7,9.1-4.6,9l0.4-0.2    c0.5-0.3,0.9-0.6,1.3-1C-2.5,7.4-2.2,7.1-2,7c0.1-0.1,0.4-0.2,0.8-0.1c0.4,0,0.9,0.1,1.3,0.3C1.9,7.6,3.7,8.5,5.5,9    C3.9,7.9,2.4,6.7,0.6,5.8C0.1,5.6-0.3,5.4-0.9,5.2c-0.5-0.1-1.2-0.3-2,0S-4,5.9-4.3,6.1C-4.6,6.3-5,6.5-5.4,6.7l-0.3,0.1    c-0.1,0,0,0-0.1,0s-0.3,0-0.5,0c-0.4,0-0.9,0-1.4,0s-1,0-1.7,0.1c-0.2,0-0.4,0.1-0.7,0.3c-0.2,0.1-0.4,0.3-0.5,0.4    c-0.1,0.1-0.1,0.2-0.2,0.3c-0.1,0.1-0.1,0.2-0.1,0.2c-0.2,0.5-0.2,0.8-0.2,1c-0.1,1.1-0.1,2.1-0.1,3.1c0,0.5,0.1,1,0.1,1.5    c0.1,0.5,0.1,1,0.2,1.6c0.6,2.3,1.9,3.9,3,5.5c0.6,0.8,1.1,1.5,1.5,2.3c0.2,0.4,0.4,0.7,0.6,1.1c0.2,0.4,0.3,0.8,0.5,1.3    C-3.9,29.2-3.2,33.1-1.8,36.7z"/></g><g><path d="M-51.2,34.7c-1.1-0.9-2.1-1.9-2.5-3s-0.4-2.2,0-3.4c0.3-1.1,0.9-2.3,1.7-3.3c0.8-1,1.7-2,2.7-3.1c-1.4,0.3-2.7,1-3.9,2    c-1.1,1-2,2.3-2.5,3.8c-0.4,1.5-0.3,3.3,0.6,4.7C-54.1,33.8-52.6,34.5-51.2,34.7z"/></g><g><path d="M50.4,35c1.4-0.1,2.7-0.7,3.7-1.8c1-1.1,1.6-2.7,1.5-4.2s-0.8-2.9-1.8-4c-1-1-2.3-1.7-3.7-1.9c1,0.9,1.8,1.8,2.5,2.8    c0.6,1,1,2.1,1.1,3.2s-0.1,2.1-0.7,3.1C52.3,33.2,51.4,34.1,50.4,35z"/></g></symbol><use xlink:href="#a" width="281.4" height="222.5" x="-140.7" y="-111.3" transform="matrix(1 0 0 -1 150 140.2611)" style="" overflow="visible"/><text x="0" y="315" fill="#000000" font-size="5px" font-weight="bold" font-family="'Helvetica Neue', Helvetica, Arial-Unicode, Arial, Sans-serif">Created by Clément Lcqvll</text><text x="0" y="320" fill="#000000" font-size="5px" font-weight="bold" font-family="'Helvetica Neue', Helvetica, Arial-Unicode, Arial, Sans-serif">from the Noun Project</text></svg>